<?xml version="1.0" encoding="UTF-8" standalone="no"?>
<!-- Created with Inkscape (http://www.inkscape.org/) -->

<svg
   width="7.9133329mm"
   height="10.314697mm"
   viewBox="0 0 7.9133329 10.314697"
   version="1.1"
   id="svg1"
   xml:space="preserve"
   xmlns="http://www.w3.org/2000/svg"
   xmlns:svg="http://www.w3.org/2000/svg"><defs
     id="defs1" /><g
     id="layer1"
     transform="translate(-120.4625,-143.35392)"><path
       style="fill:#000000;stroke-width:0.875425"
       d="m 122.85286,151.98393 c -2.55561,-3.289 -2.96523,-4.97221 -1.68882,-6.93969 1.61895,-2.49544 5.50968,-2.16543 6.81152,0.57776 0.65607,1.38243 0.51755,2.54156 -0.50364,4.21424 -0.96554,1.58154 -2.75344,3.81743 -3.0645,3.83235 -0.13019,0.006 -0.82974,-0.75185 -1.55456,-1.68466 z m 4.18729,-2.76112 c 0.38501,-0.73685 0.70002,-1.62647 0.70002,-1.97693 0,-1.73826 -2.12212,-3.62492 -3.71238,-3.30048 -1.65774,0.33819 -2.93833,1.77814 -2.93833,3.30398 0,0.83497 1.14097,2.9864 2.34384,4.41959 l 0.96277,1.14713 0.97202,-1.12679 c 0.53462,-0.61973 1.28704,-1.72965 1.67206,-2.4665 z m -4.13364,-0.43747 c -0.85462,-0.87175 -0.88085,-1.83235 -0.0766,-2.80725 0.85484,-1.0363 2.31507,-1.0363 3.16991,0 0.75878,0.91985 0.75878,1.85146 0,2.7713 -0.82583,1.00114 -2.13219,1.01631 -3.09327,0.036 z m 2.59765,-0.44072 c 0.60586,-0.53076 0.50763,-1.56343 -0.20293,-2.13357 -0.75598,-0.60657 -1.01684,-0.60657 -1.77282,0 -0.71069,0.57024 -0.80845,1.60053 -0.20293,2.13861 0.77271,0.68664 1.39079,0.68521 2.17868,-0.005 z"
       id="path3" /></g></svg>
