<?xml version="1.0" encoding="UTF-8" standalone="no"?>
<!-- Created with Inkscape (http://www.inkscape.org/) -->

<svg
   width="296.99997mm"
   height="210mm"
   viewBox="0 0 1122.5196 793.70081"
   version="1.1"
   id="svg1"
   xmlns="http://www.w3.org/2000/svg"
   xmlns:svg="http://www.w3.org/2000/svg">
  <defs
     id="defs1">
    <rect
       x="247.21414"
       y="569.00116"
       width="509.75146"
       height="347.32565"
       id="rect3" />
  </defs>
  <g
     id="layer1">
    <path
       style="fill:#550000;stroke-width:4.32"
       d="M 152.26808,664.14592 C 100.37732,571.77877 76.01104,523.09273 57.752754,475.29533 38.753336,425.55766 30.851433,391.62106 28.562763,349.93149 c -1.001694,-18.2461 -0.173546,-40.20961 2.093422,-55.51572 1.18708,-8.0153 1.166035,-8.58197 -0.846936,-22.81888 -1.861031,-13.16221 -2.029553,-16.39463 -1.711823,-32.83116 0.322623,-16.69192 0.587498,-19.32616 3.135545,-31.18737 7.88534,-36.70687 18.808912,-37.78493 44.168608,-4.35874 23.845193,31.42978 45.771671,71.1814 71.230591,129.13742 10.25448,23.3438 12.45446,27.40083 23.7052,43.71628 15.77128,22.87066 30.11843,45.44063 44.68138,70.28945 11.82256,20.173 34.63799,57.62418 40.31545,66.1774 2.20456,3.3212 3.20265,6.04598 3.20265,8.7432 0,6.10589 -2.13703,6.66746 -5.58174,1.46698 -6.73796,-10.17279 -26.44381,-42.37264 -40.0022,-65.36481 -15.33708,-26.00816 -30.8464,-50.69761 -40.88784,-65.0895 l -6.21695,-8.91039 v 5.29896 c 0,10.4354 -1.818,14.98457 -9.24811,23.1404 -8.41772,9.24003 -19.23509,17.30391 -27.06855,20.17832 -7.19093,2.63857 -21.17971,1.35476 -27.35972,-2.51232 -5.086612,-3.18236 -15.42417,-14.0892 -21.099854,-22.26163 -16.559903,-23.84471 -35.965239,-68.67199 -45.304021,-104.65422 -1.496868,-5.76757 -2.78868,14.68682 -2.36782,37.49171 0.57852,31.34846 5.14351,58.43746 15.401903,91.39657 16.880816,54.23641 45.498515,114.72584 101.409682,214.35032 11.08685,19.7548 20.15791,36.90394 20.15791,38.10901 0,2.67498 -1.51409,6.35181 -2.61564,6.35181 -0.44391,0 -7.41251,-11.75786 -15.48582,-26.12851 z M 85.519345,375.11638 c -0.869593,-1.63629 -5.138295,-9.40697 -9.486042,-17.26691 -14.821701,-26.79458 -27.86544,-61.41678 -34.388476,-91.27799 -1.628892,-7.45687 -3.12817,-12.89012 -3.331682,-12.07374 -0.710694,2.85102 1.600206,23.09713 3.903933,34.20239 6.16943,29.74035 20.989838,62.0755 37.940244,82.77762 5.775168,7.05336 7.965633,8.53981 5.362023,3.63863 z M 185.44089,251.98719 c 0,-7.49958 -7.64622,-28.07864 -10.43271,-28.07864 -1.47898,0 -0.96022,-3.16841 0.71962,-4.39494 2.79615,-2.04189 7.63384,-13.53607 9.41811,-22.37739 l 1.72921,-8.56835 0.79002,4.78045 c 0.43452,2.62929 0.79001,5.13651 0.79001,5.5717 0,3.39663 4.64349,15.62072 7.28829,19.18674 3.04511,4.1057 3.70024,7.53556 1.43933,7.53556 -1.91628,0 -7.82921,13.89452 -9.21707,21.65868 -1.44698,8.09506 -2.52481,10.09563 -2.52481,4.68619 z m -58.00423,-62.70892 c -2.57877,-21.66811 -9.15483,-41.2646 -16.96521,-50.55605 -2.6967,-3.20819 -4.90433,-6.29468 -4.90585,-6.85881 -0.001,-0.56317 1.32784,-1.94346 2.95421,-3.06403 4.00679,-2.76183 11.21283,-15.51191 14.23,-25.17767 2.63057,-8.427375 6.17358,-25.488085 6.17358,-29.727683 0,-4.835441 1.34032,-2.539303 1.79996,3.083361 1.55403,19.009937 10.40793,44.789632 18.29669,53.274322 l 3.89496,4.1892 -5.05964,5.63071 c -8.30229,9.23924 -14.33309,26.14997 -18.76934,52.63027 -0.69484,4.14786 -0.76584,4.00036 -1.64936,-3.42362 z m 52.76963,-98.682635 c -0.84914,-3.82926 -2.70009,-9.08486 -4.11318,-11.67893 l -2.56932,-4.716706 2.96634,-4.943494 c 1.63151,-2.719098 3.53493,-7.686867 4.22985,-11.03937 l 1.26347,-6.095787 1.34521,6.032384 c 0.73984,3.318089 2.67475,8.600666 4.29979,11.739369 l 2.95457,5.70694 -2.70294,3.505874 c -1.58122,2.05101 -3.41403,6.6072 -4.41641,10.97912 l -1.71347,7.4732 z"
       id="path1" />
    <text
       xml:space="preserve"
       transform="matrix(1.882284,0,0,5.2098093,-311.41705,-2529.4706)"
       id="text2"
       style="font-size:48px;white-space:pre;shape-inside:url(#rect3);fill:#550000"><tspan
         x="247.21484"
         y="612.79381"
         id="tspan4"><tspan
           style="font-family:'Matura MT Script Capitals';-inkscape-font-specification:'Matura MT Script Capitals'"
           id="tspan3">Gloss &amp; Glass Nails</tspan></tspan></text>
  </g>
</svg>
