<?xml version="1.0" encoding="UTF-8" standalone="no"?>
<!-- Created with Inkscape (http://www.inkscape.org/) -->

<svg
   width="14.012856mm"
   height="10.58335mm"
   viewBox="0 0 14.012856 10.58335"
   version="1.1"
   id="svg1"
   xml:space="preserve"
   inkscape:version="1.3.2 (091e20e, 2023-11-25, custom)"
   sodipodi:docname="message-icon.svg"
   xmlns:inkscape="http://www.inkscape.org/namespaces/inkscape"
   xmlns:sodipodi="http://sodipodi.sourceforge.net/DTD/sodipodi-0.dtd"
   xmlns="http://www.w3.org/2000/svg"
   xmlns:svg="http://www.w3.org/2000/svg"><sodipodi:namedview
     id="namedview1"
     pagecolor="#505050"
     bordercolor="#eeeeee"
     borderopacity="1"
     inkscape:showpageshadow="0"
     inkscape:pageopacity="0"
     inkscape:pagecheckerboard="0"
     inkscape:deskcolor="#505050"
     inkscape:document-units="mm"
     inkscape:zoom="0.69219276"
     inkscape:cx="397.28818"
     inkscape:cy="561.25984"
     inkscape:window-width="1920"
     inkscape:window-height="991"
     inkscape:window-x="-9"
     inkscape:window-y="-9"
     inkscape:window-maximized="1"
     inkscape:current-layer="layer1" /><defs
     id="defs1" /><g
     inkscape:label="Layer 1"
     inkscape:groupmode="layer"
     id="layer1"
     transform="translate(-94.120417,-133.60815)"><path
       style="fill:#000000"
       d="m 94.769846,143.54207 c -0.633009,-0.63301 -0.649432,-0.75196 -0.649432,-4.70363 0,-3.24115 0.0826,-4.17213 0.411878,-4.64224 0.405602,-0.57908 0.505896,-0.58804 6.582188,-0.58804 5.4114,0 6.21497,0.0537 6.53344,0.43665 0.26524,0.31894 0.38584,1.56539 0.44739,4.62411 0.084,4.17467 0.0822,4.18951 -0.58328,4.85502 l -0.66756,0.66756 h -5.71259 c -5.712452,0 -5.712622,-2e-5 -6.362034,-0.64943 z m 10.231384,-1.95844 c -2.0733,-2.39324 -2.03074,-2.3736 -3.03499,-1.40024 l -0.86375,0.83718 -0.76241,-0.79579 c -0.419332,-0.43768 -0.859512,-0.79578 -0.978182,-0.79578 -0.20962,0 -1.24992,1.08881 -2.71754,2.84427 l -0.7189,0.85989 h 5.209082 5.20907 z m -7.877302,-1.35589 1.4891,-1.7148 -1.51042,-1.52635 c -0.83073,-0.83949 -1.60344,-1.52634 -1.71714,-1.52634 -0.1137,0 -0.20672,1.4982 -0.20672,3.32934 0,1.83113 0.10262,3.28965 0.22804,3.24114 0.12542,-0.0485 0.89813,-0.85985 1.71714,-1.80299 z m 9.961072,-1.4602 c 0,-1.81901 -0.093,-3.30729 -0.20672,-3.30729 -0.11369,0 -0.88457,0.685 -1.71306,1.52223 l -1.50635,1.52223 1.51463,1.7786 c 0.83304,0.97823 1.60392,1.78151 1.71307,1.78506 0.10914,0.004 0.19843,-1.48182 0.19843,-3.30083 z m -1.05833,-4.16196 c 0,-0.11202 -2.20266,-0.20367 -4.89479,-0.20367 -2.692142,0 -4.894802,0.0871 -4.894802,0.19347 0,0.10641 1.09904,1.29709 2.4423,2.64596 l 2.442302,2.45249 2.45249,-2.44229 c 1.34888,-1.34327 2.4525,-2.53395 2.4525,-2.64596 z"
       id="path1" /></g></svg>
